<?xml version="1.0" encoding="utf-8"?>
<!-- Generator: Adobe Illustrator 24.0.2, SVG Export Plug-In . SVG Version: 6.00 Build 0)  -->
<svg version="1.1" id="Layer_1" xmlns="http://www.w3.org/2000/svg" xmlns:xlink="http://www.w3.org/1999/xlink" x="0px" y="0px"
	 viewBox="0 0 500 500" style="enable-background:new 0 0 500 500;" xml:space="preserve">
<style type="text/css">
	.st0{display:none;}
	.st1{display:inline;}
	.st2{fill:#FFFFFF;}
	.st3{fill:url(#SVGID_1_);}
	.st4{clip-path:url(#SVGID_3_);}
	.st5{fill:#FF6A15;}
</style>
<g id="Layer_1_1_" class="st0">
	<g class="st1">
		<rect x="-31.5" y="-31.5" width="563" height="563"/>
		<path class="st2" d="M531-31v562H-31V-31H531 M532-32H-32v564h564V-32L532-32z"/>
	</g>
</g>
<g>
	<defs>
		<rect id="SVGID_2_" x="77.1" y="78.9" width="393.9" height="367.8"/>
	</defs>
	<clipPath id="SVGID_1_">
		<use xlink:href="#SVGID_2_"  style="overflow:visible;"/>
	</clipPath>
	<g style="clip-path:url(#SVGID_1_);">
		<g>
			<polygon class="st5" points="208.1,446.9 321.8,446.9 435.5,446.9 321.8,324.2 208.1,324.2 			"/>
		</g>
		<g>
			<polygon class="st5" points="315.9,201.6 435.5,201.6 315.9,78.9 196.3,78.9 76.7,78.9 76.7,201.6 196.3,201.6 			"/>
		</g>
		<g>
			<polygon class="st5" points="76.7,324.2 208.1,324.2 76.7,201.6 			"/>
		</g>
		<g>
			<polygon class="st5" points="321.8,201.6 321.8,324.2 435.5,324.2 			"/>
		</g>
	</g>
</g>
</svg>
